# xmcd CD database file
#
# Track frame offsets:
#	150
#	15759
#	36212
#	57984
#	68959
#
# Disc length: 1136 seconds
#
# Revision: 0
# Processed by: cddbd v1.5.1PL0 Copyright (c) Steve Scherf et al.
# Submitted via: CDex 1.51
#
DISCID=37046e05
DTITLE=渡辺　美里 - うたの木 Seasons "冬"
DYEAR=2004
DGENRE=Pop
TTITLE0=冬景色
TTITLE1=メドレー（たき火〜ペチカ〜お正月）
TTITLE2=Believe (Seasons "冬" Ver.)
TTITLE3=きよしこの夜
TTITLE4=冬の星座
EXTD=YEAR: 2004
EXTT0=
EXTT1=
EXTT2=
EXTT3=
EXTT4=
PLAYORDER=
